<svg width="447" height="131" viewBox="0 0 447 131" fill="none" xmlns="http://www.w3.org/2000/svg">
<path d="M41.2 110.7C33.6 110.7 27 109 21.4 105.6C15.8667 102.2 11.6333 97.6667 8.7 92C5.76667 86.2667 4.3 79.9667 4.3 73.1C4.3 65.8333 5.86667 59.3333 9 53.6C12.2 47.8667 16.6667 43.4 22.4 40.2C28.1333 36.9333 34.6333 35.3 41.9 35.3C45.1667 35.3 48.2 35.6667 51 36.4C53.8667 37.0667 56.2333 37.8667 58.1 38.8C59.9667 39.6667 61.2 40.4 61.8 41L56.9 51C52.8333 47.4 47.5333 45.6 41 45.6C36.4 45.6 32.2333 46.7333 28.5 49C24.7667 51.2667 21.8333 54.5 19.7 58.7C17.5667 62.9 16.5 67.7667 16.5 73.3C16.5 78.3667 17.4333 82.9667 19.3 87.1C21.2333 91.2333 24.0333 94.5 27.7 96.9C31.3667 99.3 35.7333 100.5 40.8 100.5C46.6667 100.5 52.3333 98.8333 57.8 95.5L61.1 105C59.6333 106.333 56.9333 107.633 53 108.9C49.1333 110.1 45.2 110.7 41.2 110.7ZM72.7414 36.5H88.9414C98.0747 36.5 104.741 38.4667 108.941 42.4C113.208 46.2667 115.341 51.6 115.341 58.4C115.341 66.2667 113.041 72.3 108.441 76.5C103.841 80.7 97.0081 82.8 87.9414 82.8H84.0414V110H72.7414V36.5ZM88.2414 72.9C94.1081 72.9 98.2081 71.6 100.541 69C102.875 66.4 104.041 63.2667 104.041 59.6C104.041 55.6667 102.908 52.4667 100.641 50C98.3747 47.5333 94.5747 46.3 89.2414 46.3H84.0414V72.9H88.2414ZM139.769 46.3H120.969V36.5H169.869V46.3H150.869V110H139.769V46.3ZM191.552 62.4L191.852 70.4V110H180.652V36.4H182.052L225.252 84.6L224.852 76.2V36.5H236.052V110H234.552L191.552 62.4ZM265.648 46.3H246.848V36.5H295.748V46.3H276.748V110H265.648V46.3ZM297.13 36.5H309.83L331.83 87L353.93 36.5H366.53L332.63 110H331.13L297.13 36.5ZM383.641 62.4L383.941 70.4V110H372.741V36.4H374.141L417.341 84.6L416.941 76.2V36.5H428.141V110H426.641L383.641 62.4Z" fill="white"/>
<path d="M0 19C0 16.2386 2.23858 14 5 14H304.8C307.561 14 309.8 16.2386 309.8 19V24H5C2.23858 24 0 21.7614 0 19Z" fill="white"/>
<path d="M297.1 24H309.8V36.5H297.1V24Z" fill="white"/>
<path d="M323.625 93.7632L333.342 89.2529L349.525 124.116L344.344 126.522C341.839 127.684 338.866 126.596 337.703 124.091L323.625 93.7632Z" fill="white"/>
<path d="M338 122C338 119.239 340.239 117 343 117H441C443.761 117 446 119.239 446 122C446 124.761 443.761 127 441 127H343C340.239 127 338 124.761 338 122Z" fill="white"/>
</svg>
